<?xml version="1.0" encoding="utf-8"?>
<!-- Generator: Adobe Illustrator 27.5.0, SVG Export Plug-In . SVG Version: 6.00 Build 0)  -->
<svg version="1.1" xmlns="http://www.w3.org/2000/svg" xmlns:xlink="http://www.w3.org/1999/xlink" x="0px" y="0px"
	 viewBox="0 0 500 500" style="enable-background:new 0 0 500 500;" xml:space="preserve">
<g id="OBJECTS">
	<g>
		<g>
			<path style="fill:none;stroke:#FFFFFF;stroke-width:0.7087;stroke-miterlimit:10;" d="M406.939,117.126
				c6.519,9.518,4.088,22.517-5.43,29.036c-9.517,6.519-22.517,4.088-29.036-5.429c-6.519-9.517-4.088-22.517,5.429-29.036
				C387.42,105.178,400.42,107.609,406.939,117.126z"/>
			<g>
				<path style="fill:none;stroke:#FFFFFF;stroke-width:0.7087;stroke-miterlimit:10;" d="M98.539,180.757
					c-6.076-8.689-3.958-20.659,4.731-26.735c8.689-6.076,20.659-3.958,26.735,4.731c6.076,8.689,3.958,20.659-4.731,26.735
					C116.585,191.564,104.615,189.446,98.539,180.757z"/>
				<path style="opacity:0.38;fill:#FBFFFF;" d="M91.112,167.317c-2.793-3.994-1.819-9.496,2.175-12.289
					c3.994-2.793,9.496-1.819,12.289,2.174c2.793,3.994,1.82,9.496-2.174,12.289C99.407,172.285,93.905,171.311,91.112,167.317z"/>
			</g>
			<path style="opacity:0.26;fill:none;stroke:#FBFFFF;stroke-width:1.1339;stroke-miterlimit:10;" d="M366.23,221.324
				c6.784,9.905,4.254,23.434-5.651,30.218c-9.905,6.784-23.434,4.255-30.218-5.65c-6.784-9.905-4.255-23.434,5.65-30.218
				C345.917,208.89,359.446,211.419,366.23,221.324z"/>
			<g>
				<path style="fill:#FBFFFF;" d="M413.175,219.855h-6.155c-0.586,0-1.061-0.507-1.061-1.132v-6.566
					c0-0.625-0.475-1.132-1.061-1.132l0,0c-0.586,0-1.061,0.507-1.061,1.132v6.566c0,0.626-0.475,1.132-1.061,1.132h-6.155
					c-0.586,0-1.061,0.507-1.061,1.132l0,0c0,0.625,0.475,1.132,1.061,1.132h6.155c0.586,0,1.061,0.507,1.061,1.132v6.566
					c0,0.625,0.475,1.132,1.061,1.132l0,0c0.586,0,1.061-0.507,1.061-1.132v-6.566c0-0.626,0.475-1.132,1.061-1.132h6.155
					c0.586,0,1.061-0.507,1.061-1.132l0,0C414.236,220.361,413.761,219.855,413.175,219.855z"/>
				<path style="fill:#FBFFFF;" d="M433.65,245.847h-10.08c-0.96,0-1.738-0.778-1.738-1.738v-10.08c0-0.96-0.778-1.738-1.738-1.738
					l0,0c-0.96,0-1.738,0.778-1.738,1.738v10.08c0,0.96-0.778,1.738-1.738,1.738h-10.08c-0.96,0-1.738,0.778-1.738,1.738l0,0
					c0,0.96,0.778,1.738,1.738,1.738h10.08c0.96,0,1.738,0.778,1.738,1.738v10.08c0,0.96,0.778,1.738,1.738,1.738l0,0
					c0.96,0,1.738-0.778,1.738-1.738v-10.08c0-0.96,0.778-1.738,1.738-1.738h10.08c0.96,0,1.738-0.778,1.738-1.738l0,0
					C435.388,246.625,434.61,245.847,433.65,245.847z"/>
			</g>
			<g>
				<g>
					<g>
						<path style="fill:#92D5E4;" d="M109.728,115.964h6.629c0.631,0,1.143,0.546,1.143,1.219v7.071
							c0,0.673,0.512,1.219,1.143,1.219l0,0c0.631,0,1.143-0.546,1.143-1.219v-7.071c0-0.673,0.512-1.219,1.143-1.219h6.629
							c0.631,0,1.143-0.546,1.143-1.219l0,0c0-0.673-0.512-1.219-1.143-1.219h-6.629c-0.631,0-1.143-0.546-1.143-1.219v-7.071
							c0-0.674-0.512-1.219-1.143-1.219l0,0c-0.631,0-1.143,0.546-1.143,1.219v7.071c0,0.673-0.512,1.219-1.143,1.219h-6.629
							c-0.631,0-1.143,0.546-1.143,1.219l0,0C108.584,115.418,109.096,115.964,109.728,115.964z"/>
					</g>
					<g>
						<path style="fill:#92D5E4;" d="M81.076,85.495h10.856c1.034,0,1.872,0.838,1.872,1.872v10.856
							c0,1.034,0.838,1.872,1.872,1.872l0,0c1.034,0,1.872-0.838,1.872-1.872V87.366c0-1.034,0.838-1.872,1.872-1.872h10.856
							c1.034,0,1.872-0.838,1.872-1.872l0,0c0-1.034-0.838-1.872-1.872-1.872H99.419c-1.034,0-1.872-0.838-1.872-1.872V69.023
							c0-1.033-0.838-1.872-1.872-1.872l0,0c-1.034,0-1.872,0.838-1.872,1.872v10.856c0,1.034-0.838,1.872-1.872,1.872H81.076
							c-1.034,0-1.872,0.838-1.872,1.872l0,0C79.204,84.656,80.042,85.495,81.076,85.495z"/>
					</g>
				</g>
			</g>
			<g>
				<path style="opacity:0.38;fill:#FBFFFF;" d="M369.721,302.228l-2.137-1.663c-2.531-1.969-2.987-5.618-1.018-8.149l15.488-19.91
					c2.428-3.122,6.928-3.684,10.049-1.255l0,0c3.122,2.428,3.684,6.928,1.255,10.049l-15.488,19.91
					C375.901,303.741,372.252,304.197,369.721,302.228z"/>
				<path style="fill:#FBFFFF;" d="M375.038,281.525l-7.483,9.619c-2.428,3.121-2.075,7.706,1.008,10.182
					c3.125,2.51,7.687,1.967,10.139-1.184l7.641-9.823c0.007-0.009,0.006-0.022-0.004-0.03l-11.271-8.768
					C375.058,281.514,375.045,281.516,375.038,281.525z"/>
			</g>
			<g>
				<path style="fill:#B9E5EE;" d="M110.612,252.796c-0.205-0.006-0.406-0.061-0.584-0.162c-2.69-1.522-5.379-3.131-7.501-5.374
					c-2.194-2.319-3.738-5.44-3.473-8.621c0.265-3.181,2.699-6.258,5.873-6.593c3.017-0.319,6.051,2.136,6.37,5.153
					c0.662-2.451,3.052-4.326,5.59-4.386c2.539-0.059,5.014,1.701,5.79,4.119c0.493,1.537,0.338,3.226-0.161,4.762
					c-1.66,5.115-6.437,8.748-11.344,10.989C110.996,252.764,110.805,252.802,110.612,252.796L110.612,252.796z"/>
			</g>
			<g>
				<path style="fill:#B9E5EE;" d="M378.895,195.683c-0.239,0.007-0.476-0.044-0.69-0.15c-3.229-1.594-6.462-3.288-9.077-5.758
					c-2.704-2.553-4.705-6.082-4.605-9.799c0.1-3.717,2.728-7.455,6.398-8.054c3.488-0.569,7.179,2.088,7.747,5.576
					c0.609-2.895,3.266-5.232,6.214-5.468c2.949-0.236,5.943,1.65,7.004,4.411c0.675,1.756,0.604,3.73,0.126,5.549
					c-1.595,6.058-6.912,10.597-12.473,13.526C379.34,195.621,379.119,195.677,378.895,195.683L378.895,195.683z"/>
			</g>
			<path style="opacity:0.38;fill:#FBFFFF;" d="M417.203,81.158c2.693,3.932,1.689,9.302-2.243,11.995
				c-3.932,2.693-9.302,1.689-11.995-2.243c-2.693-3.932-1.689-9.303,2.243-11.996C409.139,76.221,414.51,77.226,417.203,81.158z"/>
			<path style="opacity:0.29;fill:none;stroke:#FBFFFF;stroke-width:1.1339;stroke-miterlimit:10;" d="M163.076,63.818
				c4.824,7.043,3.025,16.663-4.018,21.487c-7.043,4.824-16.663,3.025-21.487-4.018c-4.824-7.043-3.025-16.663,4.018-21.487
				C148.631,54.976,158.251,56.775,163.076,63.818z"/>
		</g>
		<g>
			<g>
				<path style="fill:#92D5E4;" d="M146.594,435.234l-34.366-36.88c-2.303-2.471-0.07-6.62,3.174-5.833
					c8.214,1.991,15.838,6.539,21.46,13.003c0.083-12.16-10.786-20.906-20.612-27.587c-7.812-5.312-16.337-11.79-19.619-20.332
					c-1.33-3.461,1.582-7.114,5.164-6.566c7.984,1.221,15.618,4.793,21.682,10.253c-9.992-12.86-21.716-24.289-34.736-33.862
					c-2.969-2.183-6.217-4.748-8.434-7.717c-2.803-3.754,0.207-9.245,4.776-8.597c5.118,0.726,10.093,2.479,14.542,5.161
					c-12.479-12.037-25.897-26.226-25.701-43.89c0.041-3.709,0.815-7.709,5.277-9.308c1.829-0.655,3.841-0.666,5.691-0.106
					c4.37,1.324,7.385,5.009,9.964,8.732c6.181,8.925,10.889,18.932,13.875,29.468c0.523,1.847,3.047,2.065,3.827,0.308
					c2.578-5.808-0.433-16.277,5.571-19.059c2.9-1.344,6.297-0.058,7.957,2.712c3.058,5.102,1.34,10.654,0.096,15.939
					c-2.903,12.336-3.238,25.289-0.976,37.729c2.54-2.015,5.101-4.003,7.681-5.964c5.313-4.038,12.689,0.507,11.73,7.216
					c-1.402,9.809-7.014,20.674-5.907,30.803c0.169,1.55,0.604,3.273,2.727,3.42c1.927,0.134,3.684-1.195,4.389-3.052
					c2.982-7.856,11.824-3.348,12.894,2.675c0.887,4.994-1.636,9.915-4.102,14.336c-2.466,4.422-5.054,9.282-4.305,14.3l8.279-4.26
					c3.361-1.73,6.983,1.603,5.76,5.257c-1.3,3.885-4.065,7.652-6.66,10.893c-4.418,5.517-8.83,13.166-5.293,19.264"/>
			</g>
			<g>
				<path style="fill:#B9E5EE;" d="M147.373,466.629c-17.021-9.183-36.327-14.631-55.992-15.801
					c16.17-0.814,32.417,0.206,48.28,3.033c-22.395-14.201-46.962-25.386-72.74-33.117c21.877,3.701,43.334,9.458,63.953,17.159
					c-22.857-17.948-46.781-34.694-71.626-50.138c25.313,8.49,49.219,20.584,70.668,35.749
					c-20.873-25.377-45.627-47.895-73.277-66.659c31.616,11.436,60.417,29.542,83.707,52.622
					c-5.484-16.579-12.598-32.661-21.221-47.976c21.906,28.274,43.812,56.547,65.718,84.821"/>
			</g>
			<g>
				<path style="fill:#92D5E4;" d="M358.684,464.293c18.872-10.015,40.399-16.079,62.431-17.585
					c-18.159-0.656-36.361,0.647-54.088,3.869c24.78-15.437,52.07-27.687,80.801-36.269c-24.452,4.234-48.385,10.655-71.329,19.137
					c25.208-19.438,51.642-37.61,79.14-54.404c-28.192,9.386-54.718,22.596-78.413,39.049
					c22.803-27.334,50.028-51.671,80.593-72.043c-35.191,12.61-67.064,32.295-92.633,57.211l-22.656-1.444l-13.663,56.507
					L358.684,464.293z"/>
			</g>
			<g>
				<path style="fill:#B9E5EE;" d="M321.063,476.043c4.227-7.015,10.839-13.348,19.434-14.358c9.475-1.113,21.23,3.924,27.715-2.469
					c3.256-3.209,3.519-8.814,0.592-12.62c-2.926-3.806-8.711-5.381-13.024-3.547c-0.805-6.386,5.911-10.862,12.217-12.773
					c6.307-1.91,13.586-3.036,17.44-8.066c3.854-5.03-0.645-15.049-6.97-13.185c-2.371,0.699-4.42,2.908-6.949,1.861
					c-1.657-0.685-2.463-2.464-2.172-4.099c0.506-2.836,3.059-4.322,5.455-5.647c6.054-3.349,12.107-6.698,18.16-10.046
					c4.782-2.645,9.89-5.658,11.672-10.673c1.781-5.014-2.185-12.205-7.797-11.679c-4.025,0.377-8.065,4.305-11.374,1.874
					c-2.995-2.2-0.964-6.59,1.533-9.025c6.313-6.159,14.341-10.58,20.544-16.84c6.686-6.748,11.143-16.892,6.208-25.827
					c-1.204-2.18-3.059-4.06-5.436-5.036c-6.02-2.472-11.161,1.749-14.823,5.886c-6.795,7.676-12.377,16.335-16.543,25.627
					c-1.775,3.959-8.188,2.492-8.34-1.907c-0.001-0.041-0.003-0.083-0.004-0.124c-0.138-4.226-2.679-9.941-7.116-8.908
					c-1.231,0.287-2.237,1.083-2.912,2.08c-7.677,11.346,4.444,25.42,5.803,38.81c0.352,3.471-0.126,7.15-2.351,9.783
					c-2.224,2.633-6.535,3.806-9.721,1.927c-3.574-2.107-7.165-7.544-10.112-5.245c-1.256,0.979-1.522,2.709-0.876,4.209
					c3.775,8.767,5.824,18.118,6.012,27.405c0.108,5.34-0.74,11.287-5.168,14.341c-4.427,3.055-12.94,0.009-12.361-5.266
					c-2.545-0.899-5.118,1.372-5.502,3.853c-0.384,2.482,0.68,5.007,1.495,7.459c3.868,11.648,2.117,24.578-4.653,34.362"/>
			</g>
			<ellipse style="fill:#B9E5EE;" cx="250.475" cy="467.989" rx="122.076" ry="11.492"/>
		</g>
	</g>
	<g>
		<g>
			<g>
				<path style="fill:#FFFFFF;stroke:#1D1D1B;stroke-miterlimit:10;" d="M325.462,467.119H174.538
					c-12.691,0-22.979-10.288-22.979-22.979V62.289c0-12.691,10.288-22.979,22.979-22.979h150.924
					c12.691,0,22.979,10.288,22.979,22.979V444.14C348.441,456.831,338.153,467.119,325.462,467.119z"/>
				<path style="fill:#F0EFED;" d="M323.911,424.871H176.088c-8.25,0-14.938-6.688-14.938-14.938V64.461
					c0-8.25,6.688-14.938,14.938-14.938h147.823c8.25,0,14.938,6.688,14.938,14.938v345.473
					C338.849,418.183,332.161,424.871,323.911,424.871z"/>
				<path style="fill:#F0EFED;" d="M273.745,451.14h-47.489c-3.807,0-6.894-3.086-6.894-6.894l0,0c0-3.807,3.086-6.894,6.894-6.894
					h47.489c3.807,0,6.894,3.086,6.894,6.894l0,0C280.638,448.054,277.552,451.14,273.745,451.14z"/>
			</g>
			<g>
				<defs>
					<path id="SVGID_1_" d="M323.231,424.31H177.106c-8.25,0-14.938-6.688-14.938-14.938V55.248c0-8.25,6.688-14.938,14.938-14.938
						h146.124c8.25,0,14.938,6.688,14.938,14.938v354.124C338.168,417.622,331.481,424.31,323.231,424.31z"/>
				</defs>
				<clipPath id="SVGID_00000170255013367309721950000011066288021112805013_">
					<use xlink:href="#SVGID_1_"  style="overflow:visible;"/>
				</clipPath>
				<g style="clip-path:url(#SVGID_00000170255013367309721950000011066288021112805013_);">
					<g>
						<path style="fill:#0067ff;" d="M201.282,465.907c34.07,8.165,69.292,4.912,103.823,0.237c1.96-0.265,4.129-0.666,5.364-2.497
							c1.092-1.619,1.119-3.883,1.078-5.959c-0.157-7.876-0.571-15.742-0.986-23.605c-2.55-48.371-5.101-96.742-7.651-145.114
							c-0.504-9.564-1.079-19.445-4.775-27.959c-4.655-10.723-14.878-16.549-22.967-23.942c-6.635-6.064-19.055-5.917-29.185-6.533
							c-5.797-0.352-15.57,2.205-21.135,4.171c-8.353,2.951-12.468,11.881-16.746,20.912c-3.883,8.197-6.088,17.346-8.135,26.436
							c-6.7,29.759-12.086,60.121-13.076,90.907c-0.99,30.786,2.558,62.142,13.097,90.282"/>
					</g>
					<g>
						<path style="fill:#FBFFFF;" d="M218.471,644.643c-8.947,3.758-19.975-7.17-32.047-8.436c-1.499-0.157-2.632-1.734-2.612-3.617
							c1.262-119.337-4.153-230.465,0.873-349.675c0.315-7.469,2.736-12.865,5.128-19.734c7.058-20.264,20.578-25.773,38.111-28.164
							c-10.58,135.96,32.195,136.606,28.767,273.09C256.598,511.847,221.284,643.461,218.471,644.643z"/>
					</g>
					<g>
						<path style="fill:#FBFFFF;" d="M277.308,644.688c8.855,3.873,29.964,1.198,41.993,0.088c1.493-0.138,2.642-1.7,2.646-3.583
							c0.278-119.344-2.9-238.502-6.369-357.768c-0.217-7.473-2.557-12.899-4.85-19.798c-6.763-20.354-20.147-26.036-37.564-28.654
							c1.284,19.902,0.204,36.305-0.273,52.761c-2.78,96.072-29.519,145.001-28.105,261.554
							C244.832,553.029,274.525,643.471,277.308,644.688z"/>
					</g>
					<g>
						<path style="fill:#DCD9D8;" d="M253.876,439.804c6.657-47.076,13.01-69.217,23.522-115.166
							c2.229-9.745,4.737-19.83,6.688-29.234c0.742-3.575-5.457-10.546-8.552-13.454c3.705-9.623,11.743-22.625,10.771-28.808
							c1.247-4.471-10.669-16.164-17.824-19.635c-0.525-0.255-1.138,0.182-1.346,1.003c-3.509,13.882-2.64,30.263-3.698,44.701
							c-4.598,62.76-7.852,93.415-10.004,156.008"/>
					</g>
					<g>
						<path style="fill:#DCD9D8;" d="M253.832,440.445c-9.159-46.654-18.392-71.555-31.326-116.879
							c-2.743-9.612-5.781-19.549-8.229-28.836c-0.931-3.53,4.863-10.819,7.788-13.887c-4.205-9.412-12.905-21.97-12.27-28.196
							c-1.482-4.398,9.749-16.704,16.683-20.549c0.509-0.282,1.143,0.122,1.393,0.931c4.24,13.676,4.256,30.078,6.086,44.439
							c7.953,62.423,14.662,93.936,20.171,156.322"/>
					</g>
					<g>
						<g>
							<g>
								<g>
									<path style="fill:#3ACEBC;" d="M331.842,442.825c1.916,6.914,2.849,14.004,2.773,21.09
										c-0.082,7.663-1.306,15.53,0.579,22.956c0.366,1.445,2.813,1.633,3.642,0.317c1.523-2.42,2.643-5.005,3.316-7.664
										c0.385-1.522,2.927-1.693,3.694-0.269c0.572,1.063,0.862,2.321,1.02,3.455c0.986,7.095,2.761,12.611,3.747,19.706
										c0.416,2.997,1.042,7.56,2.217,10.399c0.552,1.335,1.722,0.56,2.085-0.817c0.314-1.191,0.531-5.961,0.67-5.363
										c0.312,1.337,2.631,1.598,3.118-0.569c2.059-9.169,1.927-21.675,0.859-28.388c-2.685-16.886-9.868-23.912-12.117-41.607"/>
								</g>
							</g>
						</g>
						<g>
							<path style="fill:#DCD9D8;" d="M307.076,357.336c6.415,27.021,14.206,62.1,22.535,88.575c0.337,1.072,0.728,2.22,1.634,2.865
								c0.879,0.626,2.035,0.627,3.106,0.576c6.016-0.291,11.988-1.529,17.636-3.657c-3.881-48.044-14.431-92.619-23.43-139.949
								c-2.401-12.627-6.974-22.271-15.344-35.364c-4.201-6.573,9.348,4.17-9.001-2.704v8.113l-6.547,24.079l0.805,11.216
								C298.47,311.086,301.348,333.206,307.076,357.336z"/>
						</g>
						<g>
							<path style="fill:#FBFFFF;" d="M308.303,357.128c6.414,27.021,12.979,62.308,21.307,88.783
								c0.337,1.072,0.728,2.22,1.634,2.865c0.879,0.626,2.035,0.627,3.106,0.576c6.016-0.291,11.988-1.529,17.636-3.657
								c-3.881-48.044-12.38-92.642-21.38-139.971c-2.401-12.627-6.719-27.776-15.089-40.869
								c-4.202-6.573-12.555-19.313-30.904-26.187l11.005,9.04l1.125,45.453l2.148,13.418
								C298.893,306.578,302.575,332.997,308.303,357.128z"/>
						</g>
					</g>
					<g>
						<g>
							<g>
								<g>
									<path style="fill:#3ACEBC;" d="M164.009,442.825c-1.916,6.914-2.849,14.004-2.773,21.09
										c0.082,7.663,1.306,15.53-0.579,22.956c-0.366,1.445-2.813,1.633-3.642,0.317c-1.523-2.42-2.643-5.005-3.316-7.664
										c-0.385-1.522-2.927-1.693-3.693-0.269c-0.572,1.063-0.862,2.321-1.02,3.455c-0.986,7.095-2.761,12.611-3.747,19.706
										c-0.416,2.997-1.042,7.56-2.217,10.399c-0.552,1.335-1.722,0.56-2.085-0.817c-0.314-1.191-0.531-5.961-0.67-5.363
										c-0.312,1.337-2.631,1.598-3.118-0.569c-2.059-9.169-1.927-21.675-0.859-28.388c2.685-16.886,9.868-23.912,12.117-41.607"
										/>
								</g>
							</g>
						</g>
						<g>
							<path style="fill:#DCD9D8;" d="M188.775,357.336c-6.414,27.021-14.206,62.1-22.535,88.575
								c-0.337,1.072-0.728,2.22-1.634,2.865c-0.879,0.626-2.035,0.627-3.106,0.576c-6.016-0.291-11.988-1.529-17.636-3.657
								c3.881-48.044,14.431-92.619,23.43-139.949c2.401-12.627,6.974-22.271,15.344-35.364c4.201-6.573-9.348,4.17,9.001-2.704
								v8.113l6.546,24.079l-0.805,11.216C197.381,311.086,194.504,333.206,188.775,357.336z"/>
						</g>
						<g>
							<path style="fill:#FBFFFF;" d="M187.548,357.128c-6.415,27.021-12.979,62.308-21.307,88.783
								c-0.337,1.072-0.728,2.22-1.634,2.865c-0.879,0.626-2.035,0.627-3.106,0.576c-6.016-0.291-11.988-1.529-17.636-3.657
								c3.881-48.044,12.38-92.642,21.38-139.971c2.401-12.627,6.719-27.776,15.088-40.869c4.202-6.573,12.555-19.313,30.904-26.187
								l-11.005,9.04l-1.125,45.453l-2.148,13.418C196.958,306.578,193.276,332.997,187.548,357.128z"/>
						</g>
					</g>
					<g>
						<g>
							<g>
								<path style="fill:#79838E;" d="M186.816,342.752c-0.173-7.169-0.016-14.352,0.802-21.48c0.4-3.483,0.959-6.948,1.671-10.381
									c0.305-1.472,0.585-2.967,1.056-4.397c0.456-1.387,1.052-2.73,1.737-4.018c0.642-1.207,1.364-2.404,2.271-3.434
									c0.953-1.083,2.184-1.916,3.49-2.517c2.973-1.366,6.282-1.09,8.898,0.896c2.624,1.992,4.072,5.052,4.89,8.169
									c0.936,3.564,1.332,7.301,1.743,10.955c0.96,8.535,1.257,17.139,0.905,25.72c-0.026,0.638,0.966,0.637,0.992,0
									c0.332-8.091,0.087-16.202-0.747-24.256c-0.394-3.801-0.815-7.652-1.628-11.39c-0.705-3.242-1.923-6.46-4.288-8.864
									c-2.172-2.208-5.116-3.445-8.226-3.003c-3.009,0.428-5.741,2.155-7.527,4.589c-1.678,2.287-2.994,5.033-3.733,7.774
									c-0.926,3.437-1.514,7.008-2.025,10.527c-1.205,8.316-1.476,16.719-1.273,25.111
									C185.839,343.389,186.831,343.392,186.816,342.752L186.816,342.752z"/>
							</g>
						</g>
						<path style="fill:#79838E;" d="M217.026,343.958c-0.036,1.328-1.142,2.376-2.471,2.34c-1.329-0.036-2.376-1.142-2.34-2.471
							c0.036-1.329,1.142-2.376,2.471-2.34C216.014,341.523,217.062,342.629,217.026,343.958z"/>
						<path style="fill:#79838E;" d="M201.616,288.913l-0.683-0.039c-1.189-0.068-2.099-1.087-2.031-2.276l0.851-14.913
							c0.068-1.189,1.087-2.098,2.276-2.031l0.683,0.039c1.189,0.068,2.099,1.087,2.031,2.276l-0.851,14.913
							C203.824,288.072,202.805,288.981,201.616,288.913z"/>
						<path style="fill:#79838E;" d="M188.7,343.743c-0.036,1.329-1.142,2.376-2.471,2.34c-1.329-0.036-2.376-1.142-2.34-2.471
							c0.036-1.329,1.142-2.376,2.471-2.34C187.688,341.308,188.736,342.414,188.7,343.743z"/>
						<g>
							<g>
								<path style="fill:#79838E;" d="M202.671,294.89c-0.624-19.957-0.753-43.965,17.055-57.149
									c4.083-3.023,8.848-5.047,13.928-5.514c0.975-0.09,0.985-1.625,0-1.535c-9.355,0.86-17.299,6.492-22.797,13.89
									c-6.463,8.697-8.943,19.452-9.669,30.098c-0.459,6.728-0.263,13.477-0.052,20.21
									C201.167,295.875,202.702,295.879,202.671,294.89L202.671,294.89z"/>
							</g>
						</g>
					</g>
					<g>
						<path style="fill:#79838E;" d="M305.025,311.328c0,3.663-2.969,6.632-6.631,6.632c-3.663,0-6.632-2.969-6.632-6.632
							c0-3.662,2.969-6.631,6.632-6.631C302.056,304.696,305.025,307.665,305.025,311.328z"/>
						<g>
							<g>
								<path style="fill:#79838E;" d="M260.057,231.957c10.425,1.089,19.05,8.549,24.199,17.319
									c6.007,10.23,8.249,22.29,10.218,33.838c1.234,7.237,2.178,14.519,2.849,21.829c0.09,0.975,1.625,0.985,1.535,0
									c-1.204-13.122-3.048-26.401-6.42-39.158c-2.882-10.899-7.712-21.692-16.784-28.813c-4.532-3.557-9.841-5.95-15.595-6.551
									C259.076,230.32,259.083,231.855,260.057,231.957L260.057,231.957z"/>
							</g>
						</g>
						<path style="opacity:0.75;fill:#FBFFFF;" d="M301.307,311.378c0,1.582-1.282,2.864-2.864,2.864
							c-1.581,0-2.864-1.282-2.864-2.864c0-1.581,1.282-2.864,2.864-2.864C300.025,308.514,301.307,309.797,301.307,311.378z"/>
					</g>
					<g>
						<g>
							<g>
								<path style="fill:#F7B094;" d="M256.189,252.243c5.915-1.501,9.824-7.148,9.102-13.208
									c-1.096-9.206-2.141-21.919-2.037-27.226c0.052-2.664,0.06-5.329,0.003-7.992c-0.013-0.602-0.043-1.256-0.325-1.71
									c-0.236-0.381-0.602-0.542-0.953-0.65c-3.466-1.074-6.945,1.277-10.44,2.153c-4.273,1.07-8.695-0.084-12.991,0.782
									c-0.517,0.104-1.089,0.289-1.375,0.902c-0.166,0.356-0.204,0.796-0.237,1.219c-0.52,6.557-2.314,19.599-4.698,31.18
									c-1.23,5.975,2.095,11.944,7.844,13.984l4.163,1.477c2.273,0.807,4.733,0.92,7.071,0.327L256.189,252.243z"/>
							</g>
							<g>
								<path style="fill:#E89C82;" d="M263.413,199.703c-0.236-0.38-0.602-0.542-0.953-0.65c-3.466-1.074-6.945,1.278-10.44,2.153
									c-4.273,1.07-8.694-0.084-12.991,0.782c-0.517,0.104-1.089,0.289-1.375,0.902c-0.166,0.356-0.204,0.796-0.237,1.219
									c-0.339,4.277-1.31,8.141-1.65,12.418c3.639,3.012,8.305,5.404,12.506,5.693c5.768,0.396,11.786-2.85,15.419-9.018
									c0.014-1.265,0.029-2.53,0.043-3.795c0.029-2.664,0.06-5.329,0.003-7.992C263.726,200.811,263.695,200.158,263.413,199.703z
									"/>
							</g>
							<path style="fill:#5BC6D8;" d="M265.292,239.035c-0.586-4.92-1.155-10.835-1.545-16.093
								c-5.598,2.32-11.498,4.286-17.556,4.16c-4.025-0.084-8.132-1.26-11.42-3.511c-0.722,4.596-1.579,9.463-2.534,14.101
								c-1.23,5.975,2.269,12.16,7.691,14.33l1.859,0.762c1.551,0.637,3.186,1.063,4.857,1.196c1.826,0.145,3.729,0.142,5.192,0.016
								c0.58-0.05,1.507-0.22,2.068-0.374l1.516-0.417c0.945-0.26,1.874-0.599,2.744-1.051
								C263.364,249.449,265.947,244.534,265.292,239.035z"/>
						</g>
						<g>
							<path style="fill:#38303B;" d="M223.439,207.937c-15.113-4.117-24.842-21.329-20.245-35.815
								c1.029-3.241,2.657-6.312,3.313-9.642c1.58-8.026-2.555-16.997,1.494-24.173c4.454-7.895,15.695-8.623,23.831-13.005
								c4.389-2.363,8.072-5.964,12.79-7.634c11.266-3.987,22.899,4.202,31.908,11.849c5.191,4.406,10.567,9.062,13.057,15.285
								c2.253,5.63,1.87,11.884,2.988,17.822c0.691,3.672,1.959,7.227,2.606,10.907c1.725,9.806-1.261,20.289-7.939,27.867
								s-16.923,12.109-27.233,12.045"/>
						</g>
						<g>
							<path style="fill:#F7B094;" d="M278.811,178.454c0,23.117-15.953,41.857-30.167,41.857c-14.214,0-30.167-18.74-30.167-41.857
								c0-23.117,8.747-34.427,31.166-34.427C270.31,144.027,278.811,155.336,278.811,178.454z"/>
						</g>
						<g>
							<g>
								<path style="fill:#F7B094;" d="M277.161,187.463c3.715-1.131,6.932-4.367,7.236-8.239c0.304-3.872-2.993-7.885-6.869-7.648"
									/>
							</g>
							<g>
								<path style="fill:#F7B094;" d="M221.066,187.463c-3.715-1.131-6.933-4.367-7.236-8.239
									c-0.304-3.872,2.993-7.885,6.869-7.648"/>
							</g>
						</g>
						<path style="fill:#38303B;" d="M234.872,174.697c0,2.328-1.03,4.215-2.299,4.215c-1.27,0-2.3-1.887-2.3-4.215
							c0-2.328,1.03-4.216,2.3-4.216C233.842,170.481,234.872,172.369,234.872,174.697z"/>
						<path style="fill:#38303B;" d="M264.75,174.484c0,2.328-1.03,4.216-2.3,4.216c-1.27,0-2.299-1.887-2.299-4.216
							c0-2.328,1.029-4.215,2.299-4.215C263.721,170.269,264.75,172.156,264.75,174.484z"/>
						<g>
							<g>
								<path style="fill:#38303B;" d="M238.049,171.382c-1.559-1.118-3.727-1.439-5.601-1.43c-1.782,0.008-3.841,0.309-5.275,1.453
									c-0.357,0.284,0.148,0.783,0.501,0.501c1.315-1.049,3.35-1.263,4.965-1.245c1.699,0.018,3.639,0.319,5.052,1.333
									C238.063,172.26,238.417,171.646,238.049,171.382L238.049,171.382z"/>
							</g>
						</g>
						<g>
							<g>
								<path style="fill:#38303B;" d="M257.606,172.074c1.398-1.036,3.332-1.369,5.03-1.414c1.613-0.042,3.655,0.137,4.985,1.165
									c0.356,0.275,0.862-0.223,0.501-0.501c-1.452-1.122-3.512-1.395-5.295-1.376c-1.874,0.02-4.037,0.371-5.579,1.514
									C256.886,171.731,257.239,172.346,257.606,172.074L257.606,172.074z"/>
							</g>
						</g>
						<g>
							<path style="fill:#E66E60;" d="M256.878,198.11"/>
						</g>
						<g>
							<g>
								<path style="fill:#E89C82;" d="M246.449,171.465c-0.594,4.74-1.188,9.48-1.781,14.219c-0.143,1.144-0.287,2.288-0.43,3.432
									c-0.077,0.613-0.154,1.226-0.23,1.839c-0.063,0.504-0.231,1.093-0.134,1.6c0.183,0.954,1.197,0.827,1.936,0.805
									c1.201-0.036,2.401-0.071,3.602-0.106c0.642-0.019,0.645-1.019,0-1c-1.04,0.031-2.081,0.061-3.121,0.092
									c-0.292,0.009-1.31,0.2-1.438-0.105c-0.049-0.117,0.064-0.557,0.079-0.672c0.031-0.245,0.062-0.49,0.092-0.736
									c0.271-2.166,0.543-4.331,0.814-6.497c0.537-4.29,1.075-8.581,1.612-12.871
									C247.529,170.828,246.528,170.834,246.449,171.465L246.449,171.465z"/>
							</g>
						</g>
						<g>
							<g>
								<path style="fill:#38303B;" d="M240.204,162.069c0.228,0.135-0.008,0.39-0.322,0.43c-0.315,0.04-0.628-0.053-0.917-0.138
									c-3.518-1.028-7.837-1.02-11.345,0.021c-0.538,0.16-1.084,0.347-1.685,0.359c-0.601,0.012-1.27-0.228-1.294-0.586
									c-0.011-0.154,0.097-0.302,0.226-0.436c0.545-0.565,1.487-0.956,2.468-1.242c3.169-0.925,7.071-0.896,10.2,0.075
									c1.171,0.363,2.278,0.884,2.784,1.611"/>
							</g>
							<g>
								<path style="fill:#38303B;" d="M254.806,162.069c-0.228,0.135,0.007,0.39,0.322,0.43c0.314,0.04,0.629-0.053,0.917-0.138
									c3.518-1.028,7.837-1.02,11.345,0.021c0.539,0.16,1.084,0.347,1.685,0.359c0.601,0.012,1.27-0.228,1.294-0.586
									c0.01-0.154-0.097-0.302-0.226-0.436c-0.545-0.565-1.487-0.956-2.468-1.242c-3.169-0.925-7.071-0.896-10.2,0.075
									c-1.171,0.363-2.278,0.884-2.785,1.611"/>
							</g>
						</g>
						<g>
							<path style="fill:#E66E60;" d="M258.986,199.219c-4.092,6.475-8.442,8.452-14.109,6.738c-1.767-0.534-6.02-4.657-6.847-7.068
								c6.948,3.863,14.189,4.156,21.055-0.066"/>
						</g>
						<g>
							<path style="fill:#FFFFFF;" d="M258.986,199.219c-4.547,3.163-10.033,4.152-17.344,2.199
								c-1.656-0.442-3.309-1.304-4.136-2.741c6.948,2.302,15.257,2.366,22.123-0.15L258.986,199.219z"/>
						</g>
						<circle style="opacity:0.28;fill:#E66E60;" cx="229.652" cy="192.19" r="6.64"/>
						<path style="opacity:0.28;fill:#E66E60;" d="M259.411,192.19c0,3.667,2.973,6.64,6.64,6.64c3.668,0,6.641-2.973,6.641-6.64
							c0-3.667-2.973-6.64-6.641-6.64C262.384,185.55,259.411,188.523,259.411,192.19z"/>
						<g>
							<path style="fill:#38303B;" d="M241.958,123.464c-2.303,1.391-5.306,0.368-7.575-1.077c-2.011-1.281-3.888-2.97-4.723-5.203
								c-0.835-2.233-0.351-5.081,1.602-6.449c1.408-0.986,3.467-1.213,4.267-2.733c0.866-1.645-0.348-3.566-0.634-5.403
								c-0.534-3.425,3.039-6.805,6.429-6.081c0.788,0.168,1.541,0.514,2.345,0.568c2.096,0.139,3.774-1.668,5.765-2.338
								c2.736-0.921,5.824,0.477,7.726,2.649c1.902,2.172,2.873,4.983,3.8,7.717c1.303-1.312,3.714-0.618,4.787,0.888
								c1.073,1.506,1.183,3.471,1.254,5.318c0.07,1.848,0.178,3.812,1.247,5.321c0.516,0.728,1.278,1.446,1.159,2.33
								c-0.106,0.784-0.867,1.286-1.563,1.661c-4.358,2.346-9.155,3.872-14.067,4.475"/>
						</g>
						<g>
							<path style="fill:#38303B;" d="M244.711,141.408c1.515,4.327,5.798,6.951,9.779,9.225c8.277,4.727,17.16,9.606,26.677,9.069
								c0.605-8.849-4.82-17.799-12.945-21.356c-2.009-0.879-4.489-1.836-4.845-4"/>
						</g>
						<g>
							<path style="fill:#38303B;" d="M215.639,161.665c12.817-0.096,24.538-8.182,32.1-18.53c0.791-1.082,1.58-2.313,1.463-3.647
								c-0.087-0.996-0.675-1.881-1.357-2.611c-2.796-2.992-7.293-3.945-11.331-3.261c-4.038,0.683-7.695,2.787-11.037,5.154"/>
						</g>
						<g>

								<ellipse transform="matrix(0.7071 -0.7071 0.7071 0.7071 -46.0498 237.2787)" style="fill:none;stroke:#38303B;stroke-width:0.7087;stroke-miterlimit:10;" cx="263.396" cy="174.226" rx="10.649" ry="10.649"/>

								<ellipse transform="matrix(0.7071 -0.7071 0.7071 0.7071 -55.0024 215.6654)" style="fill:none;stroke:#38303B;stroke-width:0.7087;stroke-miterlimit:10;" cx="232.83" cy="174.226" rx="10.649" ry="10.649"/>
							<g>
								<g>
									<path style="fill:#38303B;" d="M243.752,174.511c2.48-2.331,6.557-2.142,8.747,0.484c0.292,0.351,0.791-0.153,0.501-0.501
										c-2.442-2.929-7.008-3.061-9.749-0.484C242.918,174.323,243.42,174.824,243.752,174.511L243.752,174.511z"/>
								</g>
							</g>
							<g>
								<g>
									<path style="fill:#38303B;" d="M274.41,173.722c1.647-0.83,3.294-1.66,4.941-2.49c0.407-0.205,0.049-0.817-0.358-0.612
										c-1.647,0.83-3.294,1.66-4.941,2.49C273.645,173.316,274.003,173.927,274.41,173.722L274.41,173.722z"/>
								</g>
							</g>
							<g>
								<g>
									<path style="fill:#38303B;" d="M222.36,173.415c-1.512-1.044-3.024-2.087-4.536-3.13c-0.376-0.26-0.731,0.354-0.358,0.612
										c1.512,1.044,3.024,2.087,4.536,3.13C222.379,174.286,222.733,173.672,222.36,173.415L222.36,173.415z"/>
								</g>
							</g>
						</g>
					</g>
				</g>
			</g>
		</g>
		<g>
			<g>
				<path style="fill:#FFFFFF;stroke:#1D1D1B;stroke-miterlimit:10;" d="M147.386,144.592c20.907-1.312,38.92,14.573,40.232,35.481
					c0.822,13.101-5.109,25.063-14.796,32.494c-0.18,0.357-0.485,0.603-0.956,0.701c-0.015,0.011-0.03,0.022-0.045,0.033
					l5.826,19.886c0.315,1.075-1.091,1.862-1.945,1.089l-16.627-15.061c-2.237,0.564-4.552,0.941-6.938,1.091
					c-20.907,1.312-38.92-14.573-40.232-35.481C110.593,163.916,126.478,145.904,147.386,144.592z"/>
				<g>

						<ellipse transform="matrix(0.4472 -0.8944 0.8944 0.4472 -79.9292 234.483)" style="opacity:0.38;fill:#0067ff;" cx="149.727" cy="181.902" rx="20.703" ry="20.703"/>
					<polygon style="fill:#0067ff;" points="160.881,180.538 151.569,180.452 151.656,171.14 147.998,171.106 147.911,180.418
						138.6,180.331 138.566,183.989 147.878,184.076 147.791,193.387 151.449,193.421 151.536,184.11 160.847,184.196 					"/>
				</g>
			</g>
			<g>
				<path style="fill:#FFFFFF;stroke:#1D1D1B;stroke-miterlimit:10;" d="M345.998,61.778c-26.51,0-48,21.49-48,48
					c0,16.611,8.44,31.249,21.263,39.867c0.255,0.437,0.66,0.723,1.263,0.809c0.02,0.013,0.04,0.026,0.06,0.038l-5.782,25.577
					c-0.312,1.382,1.526,2.265,2.543,1.221l19.806-20.34c2.869,0.535,5.824,0.828,8.848,0.828c26.51,0,48-21.49,48-48
					C393.998,83.269,372.508,61.778,345.998,61.778z"/>
				<g>
					<path style="opacity:0.38;fill:#0067ff;" d="M347.189,143.759l-28.754-16.54c-1.857-1.068-2.496-3.439-1.428-5.296
						l25.561-44.436c1.068-1.857,3.439-2.496,5.296-1.428l28.754,16.54c1.857,1.068,2.496,3.439,1.428,5.296l-25.561,44.436
						C351.416,144.188,349.045,144.827,347.189,143.759z"/>
					<g>
						<path style="fill:#0067ff;" d="M361.236,92.132c0.736,1.827-0.15,3.905-1.977,4.64c-1.827,0.736-3.905-0.149-4.64-1.977
							s0.15-3.905,1.977-4.64C358.423,89.419,360.501,90.304,361.236,92.132z"/>
						<circle style="fill:#0067ff;" cx="340.687" cy="98.116" r="3.566"/>

							<ellipse transform="matrix(0.9997 -0.0259 0.0259 0.9997 -2.7316 9.4031)" style="fill:#0067ff;" cx="362.038" cy="110.272" rx="3.566" ry="3.566"/>
						<path style="fill:#0067ff;" d="M349.03,113.57c0.736,1.827-0.15,3.905-1.977,4.64c-1.827,0.736-3.905-0.149-4.64-1.977
							c-0.736-1.827,0.15-3.905,1.977-4.64C346.217,110.858,348.295,111.743,349.03,113.57z"/>
						<circle style="fill:#0067ff;" cx="328.638" cy="119.277" r="3.566"/>
					</g>
					<g style="opacity:0.69;">
						<path style="fill:#FBFFFF;" d="M350.217,85.857c0.736,1.827-0.15,3.905-1.977,4.64c-1.827,0.736-3.905-0.149-4.64-1.977
							c-0.735-1.827,0.15-3.905,1.977-4.64C347.404,83.145,349.481,84.03,350.217,85.857z"/>

							<ellipse transform="matrix(0.9993 -0.0369 0.0369 0.9993 -3.4154 13.6578)" style="fill:#FBFFFF;" cx="368.259" cy="99.345" rx="3.566" ry="3.566"/>

							<ellipse transform="matrix(0.1002 -0.995 0.995 0.1002 212.6022 443.8671)" style="fill:#FBFFFF;" cx="351.707" cy="104.39" rx="3.566" ry="3.566"/>

							<ellipse transform="matrix(0.9994 -0.0357 0.0357 0.9994 -3.664 12.0158)" style="fill:#FBFFFF;" cx="334.702" cy="108.627" rx="3.566" ry="3.566"/>
						<circle style="fill:#FBFFFF;" cx="356.053" cy="120.784" r="3.566"/>
						<path style="fill:#FBFFFF;" d="M342.761,124.58c0.736,1.827-0.15,3.905-1.977,4.64c-1.827,0.736-3.905-0.15-4.64-1.977
							c-0.736-1.827,0.15-3.905,1.977-4.64C339.948,121.868,342.026,122.753,342.761,124.58z"/>

							<ellipse transform="matrix(0.1002 -0.995 0.995 0.1002 183.5896 466.6039)" style="fill:#FBFFFF;" cx="349.784" cy="131.794" rx="3.566" ry="3.566"/>
					</g>
				</g>
			</g>
		</g>
	</g>
</g>
</svg>
